<svg width="78" height="9" viewBox="0 0 78 9" fill="none" xmlns="http://www.w3.org/2000/svg">
<g id="Group 1">
<path id="Elipse 4" d="M4.5 9C6.98528 9 9 6.98528 9 4.5C9 2.01472 6.98528 0 4.5 0C2.01472 0 0 2.01472 0 4.5C0 6.98528 2.01472 9 4.5 9Z" fill="white"/>
<path id="Elipse 4_2" opacity="0.195" d="M27.5 9C29.9853 9 32 6.98528 32 4.5C32 2.01472 29.9853 0 27.5 0C25.0147 0 23 2.01472 23 4.5C23 6.98528 25.0147 9 27.5 9Z" fill="white"/>
<path id="Elipse 4_3" opacity="0.195" d="M50.5 9C52.9853 9 55 6.98528 55 4.5C55 2.01472 52.9853 0 50.5 0C48.0147 0 46 2.01472 46 4.5C46 6.98528 48.0147 9 50.5 9Z" fill="white"/>
<path id="Elipse 4_4" opacity="0.195" d="M73.5 9C75.9853 9 78 6.98528 78 4.5C78 2.01472 75.9853 0 73.5 0C71.0147 0 69 2.01472 69 4.5C69 6.98528 71.0147 9 73.5 9Z" fill="#D3D3D3"/>
</g>
</svg>
